<?xml version="1.0" encoding="UTF-8" standalone="no"?>
<svg
   xmlns:dc="http://purl.org/dc/elements/1.1/"
   xmlns:cc="http://creativecommons.org/ns#"
   xmlns:rdf="http://www.w3.org/1999/02/22-rdf-syntax-ns#"
   xmlns:svg="http://www.w3.org/2000/svg"
   xmlns="http://www.w3.org/2000/svg"
   xmlns:sodipodi="http://sodipodi.sourceforge.net/DTD/sodipodi-0.dtd"
   xmlns:inkscape="http://www.inkscape.org/namespaces/inkscape"
   version="1.1"
   id="DESKTOP"
   x="0px"
   y="0px"
   viewBox="0 0 500 500"
   style="enable-background:new 0 0 500 500;"
   xml:space="preserve"
   sodipodi:docname="phone.svg"
   inkscape:version="1.0 (4035a4fb49, 2020-05-01)"><metadata
   id="metadata11"><rdf:RDF><cc:Work
       rdf:about=""><dc:format>image/svg+xml</dc:format><dc:type
         rdf:resource="http://purl.org/dc/dcmitype/StillImage" /><dc:title /></cc:Work></rdf:RDF></metadata><defs
   id="defs9" /><sodipodi:namedview
   inkscape:document-rotation="0"
   pagecolor="#ffffff"
   bordercolor="#666666"
   borderopacity="1"
   objecttolerance="10"
   gridtolerance="10"
   guidetolerance="10"
   inkscape:pageopacity="0"
   inkscape:pageshadow="2"
   inkscape:window-width="2880"
   inkscape:window-height="1541"
   id="namedview7"
   showgrid="false"
   inkscape:zoom="2.3023397"
   inkscape:cx="328.99698"
   inkscape:cy="258.55254"
   inkscape:window-x="2869"
   inkscape:window-y="-11"
   inkscape:window-maximized="1"
   inkscape:current-layer="DESKTOP" />
<style
   type="text/css"
   id="style2">
	.st0{fill:#0088CE;}
</style>

<path
   class="st0"
   d="m 254.65275,135.662 c 7.124,-3.63475 9.65698,-12.01044 6.01584,-19.1219 v 0 L 206.68446,7.6559038 C 203.0433,0.54445411 194.65282,-1.9840609 187.52881,1.65068 v 0 l -53.98409,26.391383 66.01573,134.011317 z m 173.98394,307.6887 -53.9841,-108.88419 c -3.64115,-7.11145 -12.03164,-9.63997 -19.15565,-6.00523 v 0 l -53.9841,26.39139 66.01573,134.01131 53.98413,-26.39139 c 7.12399,-3.47671 10.60684,-11.8524 7.12399,-19.12189 z M 252.27806,366.70507 c -6.01581,-3.63474 -12.03163,-8.37569 -15.51448,-15.48715 -4.74933,-9.63995 -12.03164,-21.49237 -12.03164,-21.49237 L 173.1225,237.59277 c 0,0 -4.74934,-12.01045 -9.65699,-21.49238 -2.37465,-7.11144 -3.64115,-14.38094 -2.37465,-21.49238 1.26647,-9.63996 7.124,-18.01567 16.78097,-21.49239 L 111.85609,40.210546 C 74.652956,80.982858 55.497301,170.74516 83.043456,254.50222 l 9.656979,24.02089 51.609425,92.13277 13.13985,21.49238 c 49.23475,74.27513 133.13966,112.51894 187.12375,107.77797 L 278.55773,365.91492 c -7.12401,5.68916 -17.88914,5.68916 -26.27967,0.79015 z"
   id="path4"
   sodipodi:nodetypes="csccsccccccscccccccccccccccccccc"
   style="fill:#0088ce;stroke-width:1.58171" /></svg>
